0
SECTION
2
HEADER
9
$INSUNITS
70
4
9
$ACADVER
1
AC1014
9
$HANDSEED
5
FFFF
0
ENDSEC
0
SECTION
2
TABLES
0
TABLE
2
VPORT
5
8
100
AcDbSymbolTable
0
ENDTAB
0
TABLE
2
LTYPE
5
5
100
AcDbSymbolTable
0
LTYPE
5
14
100
AcDbSymbolTableRecord
100
AcDbLinetypeTableRecord
2
BYBLOCK
70
0
0
LTYPE
5
15
100
AcDbSymbolTableRecord
100
AcDbLinetypeTableRecord
2
BYLAYER
70
0
0
ENDTAB
0
TABLE
2
LAYER
5
2
100
AcDbSymbolTable
70
2
0
LAYER
5
50
100
AcDbSymbolTableRecord
100
AcDbLayerTableRecord
2
0
70
0
6
CONTINUOUS
0
ENDTAB
0
TABLE
2
STYLE
5
3
100
AcDbSymbolTable
70
1
0
STYLE
5
11
100
AcDbSymbolTableRecord
100
AcDbTextStyleTableRecord
2
STANDARD
70
0
0
ENDTAB
0
TABLE
2
VIEW
5
6
100
AcDbSymbolTable
70
0
0
ENDTAB
0
TABLE
2
UCS
5
7
100
AcDbSymbolTable
70
0
0
ENDTAB
0
TABLE
2
APPID
5
9
100
AcDbSymbolTable
70
2
0
APPID
5
12
100
AcDbSymbolTableRecord
100
AcDbRegAppTableRecord
2
ACAD
70
0
0
ENDTAB
0
TABLE
2
DIMSTYLE
5
A
100
AcDbSymbolTable
70
1
0
ENDTAB
0
TABLE
2
BLOCK_RECORD
5
1
100
AcDbSymbolTable
70
1
0
BLOCK_RECORD
5
1F
100
AcDbSymbolTableRecord
100
AcDbBlockTableRecord
2
*MODEL_SPACE
0
BLOCK_RECORD
5
1B
100
AcDbSymbolTableRecord
100
AcDbBlockTableRecord
2
*PAPER_SPACE
0
ENDTAB
0
ENDSEC
0
SECTION
2
BLOCKS
0
BLOCK
5
20
100
AcDbEntity
100
AcDbBlockBegin
2
*MODEL_SPACE
0
ENDBLK
5
21
100
AcDbEntity
100
AcDbBlockEnd
0
BLOCK
5
1C
100
AcDbEntity
100
AcDbBlockBegin
2
*PAPER_SPACE
0
ENDBLK
5
1D
100
AcDbEntity
100
AcDbBlockEnd
0
ENDSEC
0
SECTION
2
ENTITIES
0
CIRCLE
5
100
100
AcDbEntity
8
0
100
AcDbCircle
10
-0.97512806053456913
20
69.924999999999983
30
0
40
1.25
210
0
220
-0
230
1
0
CIRCLE
5
101
100
AcDbEntity
8
0
100
AcDbCircle
10
-222.86262806053452
20
69.924999999999983
30
0
40
1.25
210
0
220
-0
230
1
0
CIRCLE
5
102
100
AcDbEntity
8
0
100
AcDbCircle
10
-0.97487193946542927
20
-12.775000000000034
30
0
40
1.25
210
0
220
-0
230
1
0
CIRCLE
5
103
100
AcDbEntity
8
0
100
AcDbCircle
10
-222.86237193946539
20
-12.775000000000034
30
0
40
1.25
210
0
220
-0
230
1
0
LWPOLYLINE
5
104
100
AcDbEntity
8
0
100
AcDbPolyline
90
33
70
1
43
0.0
10
-213.14598936032604
20
67.751382579139431
42
0.19891236737966367
10
-210.54737193946545
20
66.674999999999983
10
-13.290128060534556
20
66.674999999999983
42
0.19891236737965398
10
-10.691510639673965
20
67.751382579139431
10
-6.5513825791394495
20
71.891510639673982
42
-0.19891236737965914
10
-4.6598719394654342
20
72.674999999999997
10
2.7098719394654314
20
72.674999999999997
42
-0.19891236737965973
10
4.6013825791394547
20
71.891510639673982
10
8.7415106396740114
20
67.751382579139431
42
-0.19891236737965914
10
9.5249999999999968
20
65.859871939465435
10
9.524999999999995
20
-8.7098719394654349
42
-0.19891236737965834
10
8.7415106396740061
20
-10.601382579139456
10
4.6013825791394334
20
-14.741510639674045
42
-0.19891236737965914
10
2.7098719394654132
20
-15.525000000000029
10
-4.6598719394654342
20
-15.52500000000002
42
-0.19891236737965812
10
-6.5513825791394371
20
-14.741510639674038
10
-10.691510639674027
20
-10.601382579139447
42
0.19891236737965934
10
-13.290128060534627
20
-9.5250000000000057
10
-210.54737193946545
20
-9.5250000000000234
42
0.19572211633001146
10
-213.11387590590095
20
-10.569661164363479
42
-2.9736771361416016e-05
10
-213.1139614890067
20
-10.56935470782169
10
-217.28611742086056
20
-14.741510639674026
42
-0.19891236737965107
10
-219.17762806053452
20
-15.525000000000029
10
-226.54737193946545
20
-15.525000000000006
42
-0.19891236737966433
10
-228.43888257913946
20
-14.741510639674056
10
-232.57901063967398
20
-10.601382579139553
42
-0.19891236737964207
10
-233.36250000000001
20
-8.70987193946549
10
-233.36250000000004
20
65.859871939465378
42
-0.1989123673796423
10
-232.5790106396741
20
67.751382579139388
10
-228.43888257913937
20
71.891510639673996
42
-0.19891236737966528
10
-226.54737193946545
20
72.674999999999983
10
-219.17762806053452
20
72.674999999999955
42
-0.19891236737965673
10
-217.28611742086053
20
71.891510639673982
0
LWPOLYLINE
5
105
100
AcDbEntity
8
0
100
AcDbPolyline
90
4
70
1
43
0.0
10
-154.63750000000002
20
-7
10
-154.63750000000002
20
7
10
-140.63749999999999
20
7
10
-140.63749999999999
20
-7
0
LWPOLYLINE
5
106
100
AcDbEntity
8
0
100
AcDbPolyline
90
4
70
1
43
0.0
10
-45.100000000000009
20
26.050000000000004
10
-31.100000000000001
20
26.050000000000004
10
-31.100000000000001
20
12.050000000000002
10
-45.100000000000009
20
12.050000000000002
0
LWPOLYLINE
5
107
100
AcDbEntity
8
0
100
AcDbPolyline
90
4
70
1
43
0.0
10
-211.78750000000002
20
-7
10
-211.78750000000002
20
7
10
-197.78750000000002
20
7
10
-197.78750000000002
20
-7
0
LWPOLYLINE
5
108
100
AcDbEntity
8
0
100
AcDbPolyline
90
4
70
1
43
0.0
10
-50.150000000000006
20
31.100000000000001
10
-64.150000000000006
20
31.100000000000001
10
-64.150000000000006
20
45.100000000000009
10
-50.150000000000006
20
45.100000000000009
0
LWPOLYLINE
5
109
100
AcDbEntity
8
0
100
AcDbPolyline
90
4
70
1
43
0.0
10
-69.200000000000003
20
45.100000000000009
10
-69.200000000000003
20
31.100000000000001
10
-83.199999999999989
20
31.100000000000001
10
-83.199999999999989
20
45.100000000000009
0
LWPOLYLINE
5
110
100
AcDbEntity
8
0
100
AcDbPolyline
90
4
70
1
43
0.0
10
-216.83750000000003
20
50.150000000000006
10
-230.83750000000003
20
50.150000000000006
10
-230.83750000000003
20
64.150000000000006
10
-216.83750000000003
20
64.150000000000006
0
LWPOLYLINE
5
111
100
AcDbEntity
8
0
100
AcDbPolyline
90
4
70
1
43
0.0
10
-154.63750000000002
20
31.100000000000001
10
-154.63750000000002
20
45.100000000000009
10
-140.63749999999999
20
45.100000000000009
10
-140.63749999999999
20
31.100000000000001
0
LWPOLYLINE
5
112
100
AcDbEntity
8
0
100
AcDbPolyline
90
4
70
1
43
0.0
10
-26.050000000000004
20
-7
10
-26.050000000000004
20
7
10
-12.050000000000002
20
7
10
-12.050000000000002
20
-7
0
LWPOLYLINE
5
113
100
AcDbEntity
8
0
100
AcDbPolyline
90
4
70
1
43
0.0
10
-31.100000000000001
20
7
10
-31.100000000000001
20
-7
10
-45.100000000000009
20
-7
10
-45.100000000000009
20
7
0
LWPOLYLINE
5
114
100
AcDbEntity
8
0
100
AcDbPolyline
90
4
70
1
43
0.0
10
-140.63749999999999
20
26.050000000000004
10
-140.63749999999999
20
12.050000000000002
10
-154.63750000000002
20
12.050000000000002
10
-154.63750000000002
20
26.050000000000004
0
LWPOLYLINE
5
115
100
AcDbEntity
8
0
100
AcDbPolyline
90
4
70
1
43
0.0
10
7
20
26.050000000000004
10
7
20
12.050000000000002
10
-7
20
12.050000000000002
10
-7
20
26.050000000000004
0
LWPOLYLINE
5
116
100
AcDbEntity
8
0
100
AcDbPolyline
90
4
70
1
43
0.0
10
-211.78750000000002
20
31.100000000000001
10
-211.78750000000002
20
45.100000000000009
10
-197.78750000000002
20
45.100000000000009
10
-197.78750000000002
20
31.100000000000001
0
LWPOLYLINE
5
117
100
AcDbEntity
8
0
100
AcDbPolyline
90
4
70
1
43
0.0
10
-50.150000000000006
20
12.050000000000002
10
-64.150000000000006
20
12.050000000000002
10
-64.150000000000006
20
26.050000000000004
10
-50.150000000000006
20
26.050000000000004
0
LWPOLYLINE
5
118
100
AcDbEntity
8
0
100
AcDbPolyline
90
4
70
1
43
0.0
10
-173.68750000000003
20
7
10
-159.6875
20
7
10
-159.6875
20
-7
10
-173.68750000000003
20
-7
0
LWPOLYLINE
5
119
100
AcDbEntity
8
0
100
AcDbPolyline
90
4
70
1
43
0.0
10
-173.68750000000003
20
12.050000000000002
10
-173.68750000000003
20
26.050000000000004
10
-159.6875
20
26.050000000000004
10
-159.6875
20
12.050000000000002
0
LWPOLYLINE
5
120
100
AcDbEntity
8
0
100
AcDbPolyline
90
4
70
1
43
0.0
10
-178.73749999999998
20
-7
10
-192.73750000000001
20
-7
10
-192.73750000000001
20
7
10
-178.73749999999998
20
7
0
LWPOLYLINE
5
121
100
AcDbEntity
8
0
100
AcDbPolyline
90
4
70
1
43
0.0
10
-12.050000000000002
20
64.150000000000006
10
-12.050000000000002
20
50.150000000000006
10
-26.050000000000004
20
50.150000000000006
10
-26.050000000000004
20
64.150000000000006
0
LWPOLYLINE
5
122
100
AcDbEntity
8
0
100
AcDbPolyline
90
8
70
1
43
0.0
10
-178.73749999999998
20
64.150000000000006
10
-178.73749999999998
20
50.150000000000006
10
-182.23749999999998
20
50.150000000000006
10
-182.23749999999998
20
49.149999999999999
10
-189.23749999999998
20
49.149999999999999
10
-189.23749999999998
20
50.150000000000006
10
-192.73750000000001
20
50.150000000000006
10
-192.73750000000001
20
64.150000000000006
0
LWPOLYLINE
5
123
100
AcDbEntity
8
0
100
AcDbPolyline
90
4
70
1
43
0.0
10
-230.83750000000003
20
45.100000000000009
10
-216.83750000000003
20
45.100000000000009
10
-216.83750000000003
20
31.100000000000001
10
-230.83750000000003
20
31.100000000000001
0
LWPOLYLINE
5
124
100
AcDbEntity
8
0
100
AcDbPolyline
90
8
70
1
43
0.0
10
-45.100000000000009
20
64.150000000000006
10
-31.100000000000001
20
64.150000000000006
10
-31.100000000000001
20
50.150000000000006
10
-34.600000000000009
20
50.150000000000006
10
-34.600000000000009
20
49.149999999999999
10
-41.600000000000009
20
49.149999999999999
10
-41.600000000000009
20
50.150000000000006
10
-45.100000000000009
20
50.150000000000006
0
LWPOLYLINE
5
125
100
AcDbEntity
8
0
100
AcDbPolyline
90
4
70
1
43
0.0
10
-192.73750000000001
20
31.100000000000001
10
-192.73750000000001
20
45.100000000000009
10
-178.73749999999998
20
45.100000000000009
10
-178.73749999999998
20
31.100000000000001
0
LWPOLYLINE
5
126
100
AcDbEntity
8
0
100
AcDbPolyline
90
4
70
1
43
0.0
10
-173.68750000000003
20
31.100000000000001
10
-173.68750000000003
20
45.100000000000009
10
-159.6875
20
45.100000000000009
10
-159.6875
20
31.100000000000001
0
LWPOLYLINE
5
127
100
AcDbEntity
8
0
100
AcDbPolyline
90
4
70
1
43
0.0
10
-45.100000000000009
20
31.100000000000001
10
-45.100000000000009
20
45.100000000000009
10
-31.100000000000001
20
45.100000000000009
10
-31.100000000000001
20
31.100000000000001
0
LWPOLYLINE
5
128
100
AcDbEntity
8
0
100
AcDbPolyline
90
4
70
1
43
0.0
10
7
20
7
10
7
20
-7
10
-7
20
-7
10
-7
20
7
0
LWPOLYLINE
5
129
100
AcDbEntity
8
0
100
AcDbPolyline
90
4
70
1
43
0.0
10
-197.78750000000002
20
64.150000000000006
10
-197.78750000000002
20
50.150000000000006
10
-211.78750000000002
20
50.150000000000006
10
-211.78750000000002
20
64.150000000000006
0
LWPOLYLINE
5
130
100
AcDbEntity
8
0
100
AcDbPolyline
90
4
70
1
43
0.0
10
-7
20
64.150000000000006
10
7
20
64.150000000000006
10
7
20
50.150000000000006
10
-7
20
50.150000000000006
0
LWPOLYLINE
5
131
100
AcDbEntity
8
0
100
AcDbPolyline
90
4
70
1
43
0.0
10
-230.83750000000003
20
-7
10
-230.83750000000003
20
7
10
-216.83750000000003
20
7
10
-216.83750000000003
20
-7
0
LWPOLYLINE
5
132
100
AcDbEntity
8
0
100
AcDbPolyline
90
4
70
1
43
0.0
10
-50.150000000000006
20
50.150000000000006
10
-64.150000000000006
20
50.150000000000006
10
-64.150000000000006
20
64.150000000000006
10
-50.150000000000006
20
64.150000000000006
0
LWPOLYLINE
5
133
100
AcDbEntity
8
0
100
AcDbPolyline
90
4
70
1
43
0.0
10
-230.83750000000003
20
26.050000000000004
10
-216.83750000000003
20
26.050000000000004
10
-216.83750000000003
20
12.050000000000002
10
-230.83750000000003
20
12.050000000000002
0
LWPOLYLINE
5
134
100
AcDbEntity
8
0
100
AcDbPolyline
90
4
70
1
43
0.0
10
-64.150000000000006
20
7
10
-50.150000000000006
20
7
10
-50.150000000000006
20
-7
10
-64.150000000000006
20
-7
0
LWPOLYLINE
5
135
100
AcDbEntity
8
0
100
AcDbPolyline
90
4
70
1
43
0.0
10
7
20
31.100000000000001
10
-7
20
31.100000000000001
10
-7
20
45.100000000000009
10
7
20
45.100000000000009
0
LWPOLYLINE
5
136
100
AcDbEntity
8
0
100
AcDbPolyline
90
4
70
1
43
0.0
10
-69.200000000000003
20
-7
10
-83.199999999999989
20
-7
10
-83.199999999999989
20
7
10
-69.200000000000003
20
7
0
LWPOLYLINE
5
137
100
AcDbEntity
8
0
100
AcDbPolyline
90
12
70
1
43
0.0
10
-140.63749999999999
20
50.150000000000006
10
-141.72450000000001
20
50.150000000000006
10
-141.72450000000001
20
49.149999999999999
10
-151.13749999999999
20
49.149999999999999
10
-151.13749999999999
20
50.150000000000006
10
-165.60050000000001
20
50.150000000000006
10
-165.60050000000001
20
49.149999999999999
10
-172.60050000000001
20
49.149999999999999
10
-172.60050000000001
20
50.150000000000006
10
-173.68750000000003
20
50.150000000000006
10
-173.68750000000003
20
64.150000000000006
10
-140.63749999999999
20
64.150000000000006
0
LWPOLYLINE
5
138
100
AcDbEntity
8
0
100
AcDbPolyline
90
4
70
1
43
0.0
10
-26.050000000000004
20
12.050000000000002
10
-26.050000000000004
20
26.050000000000004
10
-12.050000000000002
20
26.050000000000004
10
-12.050000000000002
20
12.050000000000002
0
LWPOLYLINE
5
139
100
AcDbEntity
8
0
100
AcDbPolyline
90
4
70
1
43
0.0
10
-12.050000000000002
20
31.100000000000001
10
-26.050000000000004
20
31.100000000000001
10
-26.050000000000004
20
45.100000000000009
10
-12.050000000000002
20
45.100000000000009
0
LWPOLYLINE
5
140
100
AcDbEntity
8
0
100
AcDbPolyline
90
4
70
1
43
0.0
10
-197.78750000000002
20
26.050000000000004
10
-197.78750000000002
20
12.050000000000002
10
-211.78750000000002
20
12.050000000000002
10
-211.78750000000002
20
26.050000000000004
0
LWPOLYLINE
5
141
100
AcDbEntity
8
0
100
AcDbPolyline
90
4
70
1
43
0.0
10
-83.199999999999989
20
26.050000000000004
10
-69.200000000000003
20
26.050000000000004
10
-69.200000000000003
20
12.050000000000002
10
-83.199999999999989
20
12.050000000000002
0
LWPOLYLINE
5
142
100
AcDbEntity
8
0
100
AcDbPolyline
90
4
70
1
43
0.0
10
-178.73749999999998
20
26.050000000000004
10
-178.73749999999998
20
12.050000000000002
10
-192.73750000000001
20
12.050000000000002
10
-192.73750000000001
20
26.050000000000004
0
LWPOLYLINE
5
143
100
AcDbEntity
8
0
100
AcDbPolyline
90
8
70
1
43
0.0
10
-83.199999999999989
20
50.150000000000006
10
-83.199999999999989
20
64.150000000000006
10
-69.200000000000003
20
64.150000000000006
10
-69.200000000000003
20
50.150000000000006
10
-72.700000000000003
20
50.150000000000006
10
-72.700000000000003
20
49.149999999999999
10
-79.700000000000003
20
49.149999999999999
10
-79.700000000000003
20
50.150000000000006
0
LWPOLYLINE
5
144
100
AcDbEntity
8
0
100
AcDbPolyline
90
4
70
1
43
0.0
10
-138.11251980819543
20
-6.7750000000000066
10
-138.11251980819546
20
64.924999999999983
10
-85.72500861175854
20
64.924999999999983
10
-85.72500861175854
20
-6.7750000000000021
0
ENDSEC
0
SECTION
2
OBJECTS
0
DICTIONARY
5
C
100
AcDbDictionary
3
ACAD_GROUP
350
D
3
ACAD_MLINESTYLE
350
17
0
DICTIONARY
5
D
100
AcDbDictionary
0
DICTIONARY
5
1A
330
C
100
AcDbDictionary
0
DICTIONARY
5
17
100
AcDbDictionary
0
ENDSEC
0
EOF
